<svg width="371" height="448" viewBox="0 0 373 450" fill="black" xmlns="http://www.w3.org/2000/svg">
<g opacity="0.478976">
<path d="M233.143 160.894C233.143 60.8667 233.415 8.20792 233.931 8.20792C235.939 8.20792 251.252 13.5951 260.083 17.4081C321.124 43.7645 363.471 101.743 370.356 168.383C371.533 179.783 370.867 205.18 369.118 215.51C363.203 250.464 347.355 283.921 324.837 308.995L320.72 313.58H233.143V160.894ZM309.867 269.329C337.272 228.594 342.656 176.348 324.131 130.911C316.53 112.267 305.684 95.8582 291.764 81.945C284.3 74.4842 271.46 64.02 269.771 64.02C269.308 64.02 269.022 104.842 269.022 170.876V277.731L304.503 277.302L309.867 269.329Z" stroke="black" stroke-width="3"/>
<path d="M104.775 410.852H169.358V2.79872L177.287 2.23122C181.648 1.9191 189.721 1.92354 195.226 2.24111L205.237 2.81851V447.529H104.775V410.852Z" stroke="black" stroke-width="3"/>
<path d="M45.6806 305.806C1.68949 253.097 -9.97764 182.591 14.8031 119.21C28.0834 85.2432 52.4479 54.8401 83.2478 33.8016C98.4344 23.4281 118.431 14.0304 135.671 9.16489L141.452 7.53348V313.58H104.775V184.415H37.6289L38.1716 192.587C40.1199 221.923 48.4126 247.244 63.2952 269.299L67.3015 275.237V313.58H52.1686L45.6806 305.806ZM104.775 105.879C104.775 82.418 104.528 63.2227 104.227 63.2227C102.841 63.2227 88.5005 74.9471 82.1311 81.2879C69.5891 93.7736 60.3796 106.857 52.4745 123.42C48.8074 131.103 43.3821 145.641 43.3821 147.783C43.3821 148.242 55.3804 148.535 74.0787 148.535H104.775V105.879Z" stroke="black" stroke-width="3"/>
<path d="M104.775 341.486H141.452V378.162H104.775V341.486Z" stroke="black" stroke-width="3"/>
<path d="M233.143 341.486H269.022V378.162H233.143V341.486Z" stroke="black" stroke-width="3"/>
</g>
</svg>
